#!OML:ASF E:\VariousWalksJay\Project 1\Capture day 1\Session 1\Actor2.ASF
:FULLY-SPECIFIED
:DEGREES
1184
root 1.90019 12.606 13.3807 41.2268 9.91332 -1.90555
lowerback 28.1914 -6.22339 12.1629
upperback 9.513 -4.43366 1.15743
thorax -5.47805 -1.99634 -4.19743
lowerneck 2.83171 -1.26 -8.41806
upperneck -7.81233 -1.11257 14.3531
head -2.60453 -0.83752 5.81728
rclavicle 2.26615e-014 -3.27995e-014
rhumerus 89.952 -35.607 -20.9075
rradius 22.7045
rwrist 7.32704
rhand -6.73147 -17.0139
rfingers 7.12502
rthumb 19.1291 -46.0932
lclavicle 2.26615e-014 -3.27995e-014
lhumerus 89.5266 35.9726 20.9307
lradius 25.7675
lwrist 18.7424
lhand -9.3674 8.61809
lfingers 7.12502
lthumb 16.5927 37.9288
rfemur -110.601 4.78589 14.5779
rtibia 90.9351
rfoot -17.7577 -2.79241
rtoes -3.8749
lfemur 11.3521 18.6805 -3.16726
ltibia -1.27222e-014
lfoot -35.593 25.6258
ltoes -9.86496
1185
root 1.89172 12.5988 13.3785 41.2193 9.87991 -1.94054
lowerback 28.1727 -6.26065 12.1838
upperback 9.4975 -4.48022 1.11389
thorax -5.49878 -2.01935 -4.24187
lowerneck 2.84105 -1.17752 -8.43751
upperneck -7.84329 -0.998936 14.3368
head -2.62869 -0.780372 5.81357
rclavicle -4.77083e-014 0
rhumerus 90.0984 -35.6047 -21.1117
rradius 22.6607
rwrist 7.04015
rhand -6.86654 -17.4043
rfingers 7.12502
rthumb 18.9992 -46.4964
lclavicle -4.77083e-014 0
lhumerus 89.6926 35.9672 21.3154
lradius 25.6255
lwrist 18.5669
lhand -9.05655 8.83032
lfingers 7.12502
lthumb 16.892 38.1157
rfemur -110.634 4.81585 14.6408
rtibia 90.9609
rfoot -17.8163 -2.64591
rtoes -3.74738
lfemur 11.3569 18.6503 -3.17489
ltibia -1.27222e-014
lfoot -35.8486 25.7441
ltoes -9.6651
1186
root 1.88313 12.5919 13.3763 41.2121 9.84897 -1.98023
lowerback 28.159 -6.28956 12.2063
upperback 9.4806 -4.5147 1.07708
thorax -5.52115 -2.03689 -4.28352
lowerneck 2.83907 -1.098 -8.48328
upperneck -7.88368 -0.890007 14.3119
head -2.65301 -0.724239 5.81171
rclavicle -5.20816e-014 3.00165e-014
rhumerus 90.1384 -35.6316 -21.1868
rradius 22.6457
rwrist 6.84624
rhand -7.05452 -17.7522
rfingers 7.12502
rthumb 18.8184 -46.862
lclavicle -5.20816e-014 3.00165e-014
lhumerus 89.7506 35.9579 21.5289
lradius 25.5596
lwrist 18.6581
lhand -8.6533 9.13074
lfingers 7.12502
lthumb 17.2802 38.3825
rfemur -110.667 4.84211 14.7207
rtibia 90.9841
rfoot -17.8682 -2.48931
rtoes -3.6163
lfemur 11.3561 18.622 -3.18091
ltibia -3.18055e-015
lfoot -36.1169 25.8725
ltoes -9.45573
1187
root 1.87441 12.5853 13.374 41.2016 9.81886 -2.0265
lowerback 28.1534 -6.30559 12.2295
upperback 9.4635 -4.53129 1.04798
thorax -5.54406 -2.04615 -4.32286
lowerneck 2.82695 -1.02829 -8.55023
upperneck -7.92586 -0.795541 14.2807
head -2.67435 -0.674114 5.81173
rclavicle 7.15625e-015 -5.74488e-014
rhumerus 90.0637 -35.6903 -21.1253
rradius 22.6608
rwrist 6.75137
rhand -7.2904 -18.0171
rfingers 7.12502
rthumb 18.5915 -47.1487
lclavicle 7.15625e-015 -5.74488e-014
lhumerus 89.6652 35.9476 21.5161
lradius 25.5858
lwrist 19.0046
lhand -8.22554 9.4733
lfingers 7.12502
lthumb 17.6918 38.6884
rfemur -110.696 4.86717 14.8215
rtibia 91.0042
rfoot -17.914 -2.32426
rtoes -3.48444
lfemur 11.356 18.5968 -3.18124
ltibia 6.04305e-014
lfoot -36.3886 26.0078
ltoes -9.24138
1188
root 1.86555 12.579 13.3717 41.1847 9.78854 -2.07983
lowerback 28.1577 -6.3057 12.2529
upperback 9.44722 -4.52614 1.02678
thorax -5.56656 -2.04524 -4.3606
lowerneck 2.80793 -0.974456 -8.6302
upperneck -7.96364 -0.723886 14.2472
head -2.69049 -0.634548 5.8136
rclavicle -3.97569e-015 3.24019e-014
rhumerus 89.8881 -35.7775 -20.9492
rradius 22.7009
rwrist 6.75045
rhand -7.56672 -18.1733
rfingers 7.12502
rthumb 18.3257 -47.3301
lclavicle -3.97569e-015 3.24019e-014
lhumerus 89.4229 35.9365 21.2511
lradius 25.7051
lwrist 19.5477
lhand -7.85308 9.80707
lfingers 7.12502
lthumb 18.0502 38.9895
rfemur -110.717 4.89226 14.9452
rtibia 91.0217
rfoot -17.9545 -2.15223
rtoes -3.35362
lfemur 11.3616 18.5745 -3.17296
ltibia -5.40694e-014
lfoot -36.6555 26.1465
ltoes -9.02372
1189
root 1.85654 12.5732 13.3695 41.1592 9.75772 -2.1396
lowerback 28.1727 -6.28896 12.2762
upperback 9.43266 -4.49814 1.01294
thorax -5.58775 -2.03356 -4.39765
lowerneck 2.78654 -0.940566 -8.71339
upperneck -7.99299 -0.680348 14.2158
head -2.7004 -0.608756 5.81721
rclavicle 1.43125e-014 -1.25234e-014
rhumerus 89.6476 -35.8841 -20.7105
rradius 22.7548
rwrist 6.83233
rhand -7.87321 -18.2105
rfingers 7.12502
rthumb 18.0308 -47.3947
lclavicle 1.43125e-014 -1.25234e-014
lhumerus 89.0354 35.9229 20.7454
lradius 25.903
lwrist 20.1954
lhand -7.6076 10.0839
lfingers 7.12502
lthumb 18.2864 39.2444
rfemur -110.729 4.9178 15.0913
rtibia 91.0373
rfoot -17.9904 -1.97518
rtoes -3.22696
lfemur 11.3767 18.5542 -3.15447
ltibia -3.81667e-014
lfoot -36.9112 26.2853
ltoes -8.80222
1190
root 1.84739 12.5677 13.3673 41.1244 9.72681 -2.2036
lowerback 28.1978 -6.25665 12.2993
upperback 9.42054 -4.44911 1.00535
thorax -5.60685 -2.01187 -4.43462
lowerneck 2.76788 -0.928131 -8.78937
upperneck -8.013 -0.66648 14.1906
head -2.70451 -0.598166 5.82211
rclavicle 2.06736e-014 -1.61016e-014
rhumerus 89.391 -35.9984 -20.476
rradius 22.8081
rwrist 6.97843
rhand -8.19672 -18.1345
rfingers 7.12502
rthumb 17.7195 -47.3471
lclavicle 2.06736e-014 -1.61016e-014
lhumerus 88.5402 35.9037 20.0486
lradius 26.1523
lwrist 20.8438
lhand -7.53463 10.2689
lfingers 7.12502
lthumb 18.3566 39.4228
rfemur -110.729 4.94286 15.2567
rtibia 91.052
rfoot -18.0221 -1.79515
rtoes -3.10743
lfemur 11.4028 18.5337 -3.12626
ltibia 2.22639e-014
lfoot -37.1527 26.421
ltoes -8.57248
1191
root 1.83814 12.5625 13.3651 41.0811 9.69681 -2.26851
lowerback 28.2312 -6.21207 12.3222
upperback 9.41125 -4.38347 1.00267
thorax -5.6234 -1.9822 -4.47161
lowerneck 2.75662 -0.935752 -8.8489
upperneck -8.0253 -0.679726 14.1746
head -2.70439 -0.602114 5.82769
rclavicle 5.64548e-014 -3.89618e-014
rhumerus 89.1724 -36.1083 -20.315
rradius 22.8464
rwrist 7.16636
rhand -8.51979 -17.9653
rfingers 7.12502
rthumb 17.4086 -47.2057
lclavicle 5.64548e-014 -3.89618e-014
lhumerus 87.9914 35.877 19.2379
lradius 26.419
lwrist 21.4018
lhand -7.64415 10.3481
lfingers 7.12502
lthumb 18.2512 39.5119
rfemur -110.72 4.96551 15.4358
rtibia 91.0666
rfoot -18.0496 -1.6146
rtoes -2.99918
lfemur 11.4389 18.5102 -3.09088
ltibia 3.49861e-014
lfoot -37.3797 26.5517
ltoes -8.32909
1192
root 1.82885 12.5577 13.3628 41.0311 9.66881 -2.33057
lowerback 28.2702 -6.15984 12.345
upperback 9.40507 -4.30741 1.00351
thorax -5.63693 -1.9474 -4.50814
lowerneck 2.75643 -0.959525 -8.8849
upperneck -8.03355 -0.714072 14.1694
head -2.70246 -0.618077 5.8332
rclavicle -2.10712e-014 2.92213e-014
rhumerus 89.0401 -36.2027 -20.2854
rradius 22.8585
rwrist 7.37079
rhand -8.82231 -17.7334
rfingers 7.12502
rthumb 17.1175 -46.9994
lclavicle -2.10712e-014 2.92213e-014
lhumerus 87.4489 35.8448 18.4041
lradius 26.67
lwrist 21.8093
lhand -7.90849 10.3322
lfingers 7.12502
lthumb 17.9969 39.5196
rfemur -110.702 4.98391 15.621
rtibia 91.0817
rfoot -18.0727 -1.43659
rtoes -2.90647
lfemur 11.4823 18.4813 -3.05239
ltibia 3.18055e-015
lfoot -37.5951 26.6766
ltoes -8.06522
1193
root 1.81959 12.5533 13.3605 40.9776 9.64342 -2.38589
lowerback 28.3116 -6.10507 12.3671
upperback 9.402 -4.22796 1.00653
thorax -5.64718 -1.91072 -4.54311
lowerneck 2.76922 -0.993865 -8.89338
upperneck -8.04177 -0.761323 14.1753
head -2.70123 -0.642239 5.83794
rclavicle -2.94201e-014 1.74931e-014
rhumerus 89.0273 -36.273 -20.4212
rradius 22.839
rwrist 7.56339
rhand -9.0851 -17.4776
rfingers 7.12502
rthumb 16.8645 -46.7653
lclavicle -2.94201e-014 1.74931e-014
lhumerus 86.9696 35.8125 17.6384
lradius 26.8778
lwrist 22.0441
lhand -8.2673 10.2504
lfingers 7.12502
lthumb 17.6516 39.4692
rfemur -110.679 4.99676 15.8031
rtibia 91.0971
rfoot -18.0908 -1.26471
rtoes -2.83316
lfemur 11.5284 18.4449 -3.01617
ltibia -2.22639e-014
lfoot -37.8032 26.7961
ltoes -7.77412
1194
root 1.81045 12.5494 13.3581 40.9238 9.62071 -2.43129
lowerback 28.352 -6.05283 12.3879
upperback 9.40199 -4.15216 1.01044
thorax -5.65381 -1.87545 -4.57527
lowerneck 2.7948 -1.03266 -8.87343
upperneck -8.05297 -0.812783 14.1912
head -2.70263 -0.670285 5.84124
rclavicle -2.06736e-014 2.40529e-014
rhumerus 89.148 -36.3132 -20.7287
rradius 22.7894
rwrist 7.71616
rhand -9.29399 -17.2385
rfingers 7.12502
rthumb 16.6634 -46.5432
lclavicle -2.06736e-014 2.40529e-014
lhumerus 86.5997 35.7882 17.0205
lradius 27.025
lwrist 22.1198
lhand -8.64069 10.1413
lfingers 7.12502
lthumb 17.2923 39.392
rfemur -110.653 5.00381 15.9728
rtibia 91.1123
rfoot -18.1039 -1.10266
rtoes -2.78121
lfemur 11.5723 18.4 -2.98777
ltibia -9.54166e-015
lfoot -38.0087 26.9117
ltoes -7.45046
1195
root 1.8015 12.5458 13.3555 40.8733 9.60026 -2.46497
lowerback 28.3879 -6.00754 12.4067
upperback 9.40476 -4.08619 1.01411
thorax -5.65676 -1.8445 -4.60346
lowerneck 2.83089 -1.07018 -8.8274
upperneck -8.06792 -0.860611 14.215
head -2.70744 -0.698083 5.84265
rclavicle 3.06128e-014 -1.74931e-014
rhumerus 89.3912 -36.3206 -21.1803
rradius 22.7184
rwrist 7.79937
rhand -9.44289 -17.0547
rfingers 7.12502
rthumb 16.5201 -46.3715
lclavicle 3.06128e-014 -1.74931e-014
lhumerus 86.3704 35.7803 16.6099
lradius 27.1055
lwrist 22.0742
lhand -8.94553 10.0408
lfingers 7.12502
lthumb 16.9989 39.317
rfemur -110.629 5.00626 16.1217
rtibia 91.1262
rfoot -18.1119 -0.954358
rtoes -2.75232
lfemur 11.6089 18.347 -2.97176
ltibia 4.45278e-014
lfoot -38.2149 27.0262
ltoes -7.09233
1196
root 1.79279 12.5428 13.3528 40.8294 9.58046 -2.48613
lowerback 28.417 -5.97245 12.4223
upperback 9.40995 -4.03488 1.01625
thorax -5.65612 -1.82014 -4.62677
lowerneck 2.87308 -1.10193 -8.75995
upperneck -8.08441 -0.899046 14.2433
head -2.71499 -0.722288 5.84171
rclavicle 2.46493e-014 -1.71949e-014
rhumerus 89.7248 -36.2958 -21.7218
rradius 22.6395
rwrist 7.78728
rhand -9.53596 -16.9561
rfingers 7.12502
rthumb 16.4305 -46.2803
lclavicle 2.46493e-014 -1.71949e-014
lhumerus 86.2962 35.7953 16.4409
lradius 27.1232
lwrist 21.9536
lhand -9.11196 9.97496
lfingers 7.12502
lthumb 16.8387 39.2649
rfemur -110.609 5.00659 16.2426
rtibia 91.1374
rfoot -18.1155 -0.822946
rtoes -2.74549
lfemur 11.6341 18.2878 -2.97193
ltibia -1.59028e-014
lfoot -38.4223 27.1429
ltoes -6.70157
